<svg width="171" height="160" viewBox="0 0 171 160" fill="none" xmlns="http://www.w3.org/2000/svg">
<path d="M83.5225 4.50824C77.7033 0.177621 70.3882 -1.10717 63.4411 0.976546L16.4485 15.074C6.76748 17.9801 0.259277 26.7203 0.259277 36.8317V137.271C0.259277 144.523 3.59578 151.165 9.41439 155.489C15.2341 159.82 22.5572 161.104 29.4963 159.021L64.5765 148.494C63.4795 144.876 62.9237 141.101 62.9237 137.271V91.6567C62.9237 82.0782 66.417 72.93 72.7764 65.9124C77.4441 60.7429 83.499 56.9291 90.2659 54.8928L92.6781 54.2038V22.7337C92.6781 15.4809 89.3416 8.8394 83.5219 4.50824H83.5225Z" fill="#1C2AC5"/>
<path d="M170.999 77.5587V123.173C170.999 133.277 164.499 142.025 154.81 144.923L107.818 159.021C105.641 159.678 103.424 160 101.231 160C96.4295 160 91.7304 158.465 87.7357 155.489C85.9107 154.126 84.3288 152.552 83.0286 150.789C81.4467 148.675 80.2638 146.318 79.5198 143.787C79.5118 143.787 79.5043 143.787 79.4963 143.795L79.5118 143.779C78.9091 141.704 78.5801 139.519 78.5801 137.271V91.6567C78.5801 86.973 79.9742 82.5795 82.4339 78.9294C84.8931 75.2793 88.4173 72.3662 92.6781 70.635C93.3597 70.3609 94.0567 70.1097 94.7698 69.899L100.519 68.1759L141.763 55.8011C148.71 53.7173 156.025 55.0021 161.844 59.3333C167.664 63.6644 171 70.306 171 77.5587H170.999Z" fill="#3E8AF5"/>
</svg>
